<svg xmlns="http://www.w3.org/2000/svg" width="513.691" height="1226" viewBox="0 0 513.691 1226">
  <g id="_2_Countdown_Copy" data-name="2 Countdown Copy" transform="translate(0)">
    <path id="Sandrunner" d="M256.847,900C133.59,900,.93,872.948.93,813.553c-.018-19.5-.056-60.065-.009-83.98.025-12.068.368-27.958,2.818-43.84a156.759,156.759,0,0,1,12.226-41.01,164.431,164.431,0,0,1,11.578-20.969c2.379-3.682,9.619-14.887,130.325-138.3,1.078-1.107,1.954-2,2.594-2.656l.05-.051.044-.045c.593-.606.985-1.007,1.126-1.155,1.22-1.29,2.522-2.674,3.776-4.058,1.34-1.481,2.494-2.8,3.528-4.042.587-.709,1.356-1.645,2.091-2.591a56.866,56.866,0,0,0,5.745-8.539,24.608,24.608,0,0,0,2.856-7.5,66.783,66.783,0,0,0,.3-9.9l-.017-1.1a46.038,46.038,0,0,0-.836-10.119,22.368,22.368,0,0,0-3.6-6.976,128.506,128.506,0,0,0-8.239-10.808c-2.829-3.229-5.844-6.371-9.036-9.7l-.019-.02-2.275-2.37c-1.781-1.863-6.335-6.536-13.6-13.977C66.128,311.757,33.937,277.483,27.542,267.6a164.69,164.69,0,0,1-11.573-20.961,156.846,156.846,0,0,1-12.23-41.015C1.289,189.741.946,173.847.921,161.775c-.045-22.509-.016-58,0-77.146A28.02,28.02,0,0,1,0,77.8C0,27.267,132.334,0,256.847,0S513.691,27.267,513.691,77.8a28.387,28.387,0,0,1-.963,6.976c.038,35.639.04,60.826,0,77-.025,12.82-.38,28.054-2.818,43.848a156.478,156.478,0,0,1-12.226,41.007A163.877,163.877,0,0,1,486.116,267.6c-6.409,9.9-38.6,44.173-114.819,122.244l-2.067,2.12-.072.074c-5.7,5.849-9.824,10.074-11.453,11.779l-2.381,2.482-.285.3-.007.007c-3.059,3.193-5.948,6.21-8.658,9.3a127.962,127.962,0,0,0-8.239,10.8,22.385,22.385,0,0,0-3.6,6.984,46.562,46.562,0,0,0-.828,10.119l-.017,1.145a67.117,67.117,0,0,0,.294,9.851,24.784,24.784,0,0,0,2.86,7.51,56.409,56.409,0,0,0,5.736,8.527c.767.979,1.453,1.831,2.1,2.6,1.077,1.287,2.231,2.608,3.529,4.038,1.138,1.26,2.381,2.6,3.8,4.087l5.7,5.969c1.86,1.951,7.054,7.271,13.65,14.023,76.18,78.037,108.356,112.295,114.761,122.186a164.078,164.078,0,0,1,11.573,20.969,156.6,156.6,0,0,1,12.226,41.014c2.438,15.782,2.793,31.016,2.818,43.836.039,17.976.024,45.009.011,66.73v.272l0,5.514.022,11.464C512.762,872.948,380.1,900,256.847,900ZM37.027,119.387h0c-.007,11.987-.009,29.154.021,42.863.022,11.523.325,25.127,2.412,38.651a122.232,122.232,0,0,0,9.527,31.98,129.929,129.929,0,0,0,9.136,16.513c4.9,7.435,42.052,46.731,110.436,116.8,7.414,7.6,12.059,12.362,13.86,14.249l2.207,2.306c3.129,3.255,6.675,6.943,10.111,10.868a158.4,158.4,0,0,1,10.535,13.739,55.756,55.756,0,0,1,8.754,18.166c1.618,6.269,1.832,12.186,1.921,18.2l.016,1.074a95.021,95.021,0,0,1-.651,15.309,57.524,57.524,0,0,1-6.4,18.488,91.646,91.646,0,0,1-9.132,13.814c-.933,1.2-1.865,2.352-2.769,3.433-1.33,1.6-2.8,3.287-4.492,5.155-1.238,1.369-2.619,2.851-4.345,4.666-.171.181-1.566,1.616-4.131,4.24C75.216,621.187,60.139,639.721,58.11,642.75a129.372,129.372,0,0,0-9.123,16.492,122.217,122.217,0,0,0-9.523,31.976c-2.088,13.522-2.391,27.125-2.412,38.648-.056,25.463-.008,69.4.008,83.839,0,15.508,75.178,51.856,220.965,51.856,79.734,0,133.043-10.7,163.723-19.685,17.224-5.041,31.79-10.875,42.122-16.87,9.232-5.357,14.587-10.57,15.078-14.679v-.623c.028-25.158.058-61.221,0-83.839-.025-11.561-.331-25.193-2.412-38.651a122.276,122.276,0,0,0-9.527-31.985,130.331,130.331,0,0,0-9.14-16.512c-4.889-7.423-42.028-46.7-110.386-116.74l-1.4-1.438-.068-.069c-6.222-6.376-10.718-10.983-12.447-12.794l-5.766-6.032c-1.621-1.717-2.977-3.165-4.324-4.649-1.637-1.806-3.105-3.491-4.488-5.151-.956-1.15-1.885-2.3-2.761-3.417a92.89,92.89,0,0,1-9.149-13.83,57.753,57.753,0,0,1-6.4-18.492,93.571,93.571,0,0,1-.647-15.263l.013-1.1c.079-5.971.285-11.857,1.916-18.2a55.8,55.8,0,0,1,8.762-18.188,159.364,159.364,0,0,1,10.527-13.726c3.244-3.7,6.569-7.173,9.785-10.53l.225-.235,2.316-2.414c1.882-1.976,7.159-7.384,13.864-14.249,68.386-70.072,105.542-109.371,110.437-116.806a130.06,130.06,0,0,0,9.136-16.5,121.972,121.972,0,0,0,9.527-31.976c2.081-13.459,2.388-27.093,2.413-38.655.026-10.611.034-25.026.025-42.845-11.616,5.859-25.99,11.206-42.722,15.893a485.073,485.073,0,0,1-53.836,11.5c-38.281,6.115-81.3,9.347-124.4,9.347s-86.143-3.233-124.429-9.351a484.9,484.9,0,0,1-53.844-11.507c-16.735-4.69-31.109-10.04-42.722-15.9Z" transform="translate(0 326)" fill="#fff"/>
    <g id="Sand" transform="translate(46.361 562)">
      <ellipse id="Oval" cx="35.275" cy="35" rx="35.275" ry="35" transform="translate(175.365 130)" fill="#ffa223"/>
      <ellipse id="Oval_Copy" data-name="Oval Copy" cx="35.275" cy="35" rx="35.275" ry="35" transform="translate(235.835 60)" fill="#ffa223"/>
      <ellipse id="Oval_Copy_2" data-name="Oval Copy 2" cx="35.275" cy="35" rx="35.275" ry="35" transform="translate(114.894 60)" fill="#ffa223"/>
      <ellipse id="Oval_Copy_3" data-name="Oval Copy 3" cx="35.275" cy="35" rx="35.275" ry="35" transform="translate(175.365 0)" fill="#ffa223"/>
      <ellipse id="Oval_Copy_4" data-name="Oval Copy 4" cx="35.275" cy="35" rx="35.275" ry="35" transform="translate(54.424 0)" fill="#ffa223"/>
      <ellipse id="Oval_Copy_5" data-name="Oval Copy 5" cx="35.275" cy="35" rx="35.275" ry="35" transform="translate(296.306 0)" fill="#ffa223"/>
      <ellipse id="Oval_Copy_6" data-name="Oval Copy 6" cx="35.275" cy="35" rx="35.275" ry="35" transform="translate(235.835 540)" fill="#ffa223"/>
      <ellipse id="Oval_Copy_8" data-name="Oval Copy 8" cx="35.275" cy="35" rx="35.275" ry="35" transform="translate(350.729 514)" fill="#ffa223"/>
      <ellipse id="Oval_Copy_9" data-name="Oval Copy 9" cx="35.275" cy="35" rx="35.275" ry="35" transform="translate(0 514)" fill="#ffa223"/>
      <ellipse id="Oval_Copy_7" data-name="Oval Copy 7" cx="35.275" cy="35" rx="35.275" ry="35" transform="translate(114.894 540)" fill="#ffa223"/>
    </g>
    <text id="_2" data-name="2" transform="translate(167.302 0)" fill="#fff" font-size="250" font-family="HouschkaRounded-DemiBold, Houschka Rounded" font-weight="300"><tspan x="15.706" y="233">2</tspan></text>
  </g>
</svg>
