<svg xmlns="http://www.w3.org/2000/svg" width="42" height="42" viewBox="0 0 42 42">
  <g id="Check" transform="translate(1 1)">
    <g id="checkmark-round" transform="translate(10 11)">
      <rect id="checkmark-round_background" data-name="checkmark-round background" width="19" height="19" fill="rgba(0,0,0,0)"/>
      <g id="checkmark-round-2" data-name="checkmark-round" transform="translate(0.044 0.001)">
        <path id="Shape" d="M18.227.389a1.619,1.619,0,0,0-2.465.449l-8.2,12.989L3.05,8.532A1.6,1.6,0,0,0,.557,8.443,2.244,2.244,0,0,0,.48,11.31S5.966,17.9,6.754,18.565a1.619,1.619,0,0,0,2.465-.449l9.4-14.889A2.235,2.235,0,0,0,18.227.389Z" transform="translate(0 0)" fill="#fff"/>
      </g>
    </g>
    <circle id="Oval" cx="20" cy="20" r="20" fill="none" stroke="#fff" stroke-miterlimit="10" stroke-width="2"/>
  </g>
</svg>
