<svg xmlns="http://www.w3.org/2000/svg" viewBox="0 0 400 400"><defs><style>.cls-1{fill:#fff;}.cls-2{fill:#4b4b55;}.cls-3,.cls-4{fill:none;stroke-linecap:round;stroke-miterlimit:10;stroke-width:4px;}.cls-3{stroke:#2e97ef;}.cls-4{stroke:#4b4b55;}.cls-5{fill:#2e97ef;}</style></defs><title>Logo-5-NoBorder</title><g id="Artboard_1" data-name="Artboard 1"><g id="Layer_10" data-name="Layer 10"><circle class="cls-1" cx="200" cy="200" r="200"/><path class="cls-2" d="M282.94,52.14l-9.31,16s1.1,5-3.8,6.2L262,88s1.7,5.6-3.91,7.21-34.4,7.92-53.24,29.38c-11.38,12.56-19.1,40.81-19.1,40.81l-61,103.88a8.23,8.23,0,0,1,.27,2.52c2.16-1.51,4.5-3.17,7-4.93l58.29-99.54c5.16-18.06,9.87-32.53,24.91-46.88,15.48-13.91,37.39-18.32,45.34-21.33,7.41-4,5.94-9.46,5.94-9.46l7.24-12.18A9.34,9.34,0,0,0,278,70.22l6.82-11.72,30.87,17.92-6.85,11.71a9.16,9.16,0,0,0-4.39,7.46l-7.38,12.32c-3.41,1.07-6.18,5.33-4.51,12.17s5.79,23.74,4.11,41.39C294.11,189.16,267.33,212,267.33,212l-43.46,74.29c2.35,0,4.55-.17,6.4-.35l41.07-70.22S297.2,190.1,300,168.67s1.16-34.72-3.26-51c0,0-.54-5.84,4.64-6.67l7.84-13.63A5.72,5.72,0,0,1,313,91l9.22-16Z"/><path id="Golf_3" data-name="Golf 3" class="cls-3" d="M92.28,355.64s32.7-26.92,65.39,2.89c14.42,13.78,32.3,13.78,35.06,13.78"/><g id="Brief_Golf_1" data-name="Brief &amp; Golf 1"><path id="Golf_2" data-name="Golf 2" class="cls-4" d="M151.36,306.79s20.48-1.23,39.32,17.61,49.63,10.27,61,0c7.53-6.78,38.5-39.31,82.32,4.1"/><path class="cls-5" d="M172.25,260l46.41-78.59S234.9,200,251.19,198.87L204,280.48S180,260.51,172.25,260Z"/><path class="cls-4" d="M159.05,257.52,213.73,166s14.29-2.62,28.13,8.85c11.73,9.71,12.58,17.19,11.25,20.64s-49.13,85-49.13,85"/><path class="cls-3" d="M20.71,257.64s19.66-1.63,37.68,16.8,52.48,12.74,67.61-3.05,43.61-21.5,70,3.05,58.54,4.92,65.92-2.66,38.09-28,70,.22c17.61,14.4,26.63,14.48,32.77,14.4"/><path class="cls-4" d="M173.73,257.52,219,181.43l1.52-2.55s6.89-2.38,17.51,4.51L233,193"/><path class="cls-4" d="M251.19,198.87s-20.43-.57-32.19-17.44"/></g></g></g></svg>