<svg xmlns="http://www.w3.org/2000/svg" width="42" height="42" viewBox="0 0 42 42">
  <g id="Person-bubble" transform="translate(1 1)">
    <g id="person-add" transform="translate(8 8)">
      <rect id="person-add_background" data-name="person-add background" width="24" height="24" fill="rgba(0,0,0,0)"/>
      <g id="person-add-2" data-name="person-add">
        <g id="Group">
          <path id="Shape" d="M24,24a21.858,21.858,0,0,0-.138-2.513c-.112-.681-1.056-1.581-5.069-3.056-3.95-1.45-3.706-.744-3.706-3.412,0-1.731.881-.725,1.444-4.012.219-1.294.394-.431.869-2.506.25-1.088-.169-1.169-.119-1.687s.1-.981.194-2.044C17.587,3.456,16.369,0,12,0S6.412,3.456,6.531,4.775c.094,1.056.144,1.525.194,2.044s-.369.6-.119,1.688c.475,2.069.65,1.206.869,2.506.563,3.288,1.444,2.281,1.444,4.012,0,2.675.244,1.969-3.706,3.413C1.2,19.906.25,20.813.144,21.494A20.775,20.775,0,0,0,0,24H24Z" fill="#fff"/>
        </g>
      </g>
    </g>
    <circle id="Oval" cx="20" cy="20" r="20" fill="none" stroke="#fff" stroke-miterlimit="10" stroke-width="2"/>
  </g>
</svg>
