<svg xmlns="http://www.w3.org/2000/svg" width="384" height="384.1" viewBox="0 0 384 384.1">
  <g id="search" transform="translate(0 -1)">
    <path id="Shape" d="M330.4,384.1a10.582,10.582,0,0,1-7.3-3.1l-84.4-85.6a159.3,159.3,0,0,1-38.812,16.713A153.411,153.411,0,0,1,158.6,317.8a157.546,157.546,0,0,1-88.59-27.179,159.772,159.772,0,0,1-57.519-69.936A158.57,158.57,0,0,1,27.137,70.127,160.17,160.17,0,0,1,70.01,27.179a157.815,157.815,0,0,1,177.18,0,159.772,159.772,0,0,1,57.519,69.936A158.192,158.192,0,0,1,317.2,158.9a154.012,154.012,0,0,1-5.325,40.037A160.026,160.026,0,0,1,296.2,236.8L381,322.7a10.138,10.138,0,0,1,3,7.212,10.4,10.4,0,0,1-3,7.288L337.7,381A10.093,10.093,0,0,1,330.4,384.1ZM158.6,61.9c-53.375,0-96.8,43.514-96.8,97s43.424,97,96.8,97,96.8-43.514,96.8-97S211.976,61.9,158.6,61.9Z" transform="translate(0 1)" fill="#fff"/>
  </g>
</svg>
