<svg xmlns="http://www.w3.org/2000/svg" width="311" height="148.714" viewBox="0 0 311 148.714">
  <path id="Shape" d="M125.907,148.714H125.9a118.694,118.694,0,0,1-24.726-2.6A126.908,126.908,0,0,1,75.26,137.5a146.164,146.164,0,0,1-18.3-9.978,185.684,185.684,0,0,1-18.5-13.6C25.821,103.426,13.24,90.574,0,74.631A296.7,296.7,0,0,1,24.677,47.006a210.329,210.329,0,0,1,24.159-20.49,156.188,156.188,0,0,1,23.536-14.08,125.75,125.75,0,0,1,22.81-8.393A119.5,119.5,0,0,1,125.96,0c18.2,0,36.74,4.048,56.667,12.376,17.076,7.137,32.49,16.351,44.876,23.756,14.017,8.379,25.088,15,32.586,15.337H262.3l7.748-4.412L311,20.586V127.572L270.05,102.2,262.3,96.689h-2.213c-7.4.615-18.225,7.128-31.927,15.374-12.465,7.5-27.977,16.838-45.182,24.081a169.447,169.447,0,0,1-27.233,9A131.027,131.027,0,0,1,125.907,148.714ZM79.687,36.028c-5.585,0-11.067,5.463-11.067,11.029S74.1,58.086,79.687,58.086c5.306,0,9.961-5.154,9.961-11.029S84.993,36.028,79.687,36.028Z" transform="translate(0 0)" fill="#fff"/>
</svg>
