<svg xmlns="http://www.w3.org/2000/svg" width="887.307" height="182" viewBox="0 0 887.307 182">
  <g id="Smile_here" data-name="Smile here" transform="translate(-0.5)">
    <path id="Path" d="M-96.226,8.168c.805-.109,1.6-.277,2.4-.441.289-3.252,2.768-6.145,5.388-3.829A15.353,15.353,0,0,0-86.13,5.528c5.049-1.734,10.058-3.721,15.266-4.368C-59.876-.2-48.421-.156-37.391.251c4.3.158,4.883,7.894.984,9.719a7.329,7.329,0,0,1-2.834.671,2.783,2.783,0,0,1-1.89-.556c-9.087-.152-18.206.275-27.276.665a30.682,30.682,0,0,0-5,.667A97.579,97.579,0,0,1-57.494,23.09C-46.479,32.9-36.608,45.457-28.1,58.95-13.248,82.5.556,113.435-.017,145.217c-.115,6.371-7.516,6.384-7.4,0,.561-31.1-13.946-60.911-28.647-83.54a158.592,158.592,0,0,0-27.254-31.9A89.138,89.138,0,0,0-81.3,17.679a48.948,48.948,0,0,0-5.188-2.139c-1.245.425-2.493.829-3.743,1.193A156.544,156.544,0,0,1-82.3,40.992c1.208,4.906,1.769,14.985,4.6,18.6,3.458,4.413-1.782,11.4-5.234,7-3.3-4.215-4.328-13.014-5.585-18.593-2.609-11.581-5.892-22.247-10.906-32.379C-101.112,12.195-98.806,8.516-96.226,8.168Z" transform="matrix(0.059, 0.998, -0.998, 0.059, 887.807, 118.509)" fill="#fff"/>
    <text id="Smile_here-2" data-name="Smile here" transform="translate(342.5 144)" fill="#fff" font-size="150" font-family="HouschkaRounded-Medium, Houschka Rounded" font-weight="500"><tspan x="-341.775" y="0">Smile here</tspan></text>
  </g>
</svg>
