<svg id="social-facebook-outline" xmlns="http://www.w3.org/2000/svg" width="192" height="384.001" viewBox="0 0 192 384.001">
  <path id="Shape" d="M128,384H45V192H0V128H45V85.3c0-14.052,1.505-25.85,4.6-36.067a72.342,72.342,0,0,1,6.161-14.609,59.2,59.2,0,0,1,9.1-12.187,60.353,60.353,0,0,1,12.31-9.66A76.764,76.764,0,0,1,92.967,5.748a113.285,113.285,0,0,1,19.551-4.294A178.457,178.457,0,0,1,136.1,0H192V64H158.5c-13.015,0-20.806,2-25.263,6.5C128.89,74.885,128,81.427,128,89.9V128h64l-7.6,64H128V384ZM16,144v32H61V368h51V176h58.2l3.8-32H112V89.8a62.238,62.238,0,0,1,1.663-15.425A34.218,34.218,0,0,1,121.4,59.7a29.944,29.944,0,0,1,8.16-6.3,40.624,40.624,0,0,1,9.491-3.525A83.529,83.529,0,0,1,158.5,48H176V16H136.1c-29.114,0-48.61,5.724-59.6,17.5C66.07,44.446,61,61.39,61,85.3V144H16Z" transform="translate(0)" fill="#fff"/>
</svg>
