<svg id="social-linkedin-outline" xmlns="http://www.w3.org/2000/svg" width="383.901" height="383.9" viewBox="0 0 383.901 383.9">
  <g id="Group">
    <g id="Group-2" data-name="Group" transform="translate(63 64)">
      <path id="Shape" d="M54.9,256H0V84.9H54.9V256ZM29.5,59h-.4a30.775,30.775,0,0,1-11.956-2.3A26.768,26.768,0,0,1,8,50.4,30.089,30.089,0,0,1,.1,29.5,32.058,32.058,0,0,1,2.209,17.845,27.528,27.528,0,0,1,8.2,8.487a27.243,27.243,0,0,1,9.366-6.227A32.6,32.6,0,0,1,29.8,0c8.643,0,16.021,2.935,21.337,8.487a27.905,27.905,0,0,1,5.874,9.358A34.089,34.089,0,0,1,59.2,29.5a32.08,32.08,0,0,1-2.067,11.528,27.656,27.656,0,0,1-5.92,9.372,27.114,27.114,0,0,1-9.352,6.3A32.6,32.6,0,0,1,29.5,59Z" transform="translate(0.9)" fill="#fff"/>
      <path id="Shape-2" data-name="Shape" d="M104.6,0C75.5,0,63,16.4,55,27.8V4H0V175H55V77.6c0-5,.4-10,1.9-13.5,4-10,13-20.3,28.2-20.3C105,43.8,113,59.1,113,81.5V175h55V75.1C168,23.8,140.8,0,104.6,0Z" transform="translate(89 81)" fill="#fff"/>
    </g>
    <path id="Shape-3" data-name="Shape" d="M353.1,383.9H32.8a30.73,30.73,0,0,1-12.508-2.694A34.922,34.922,0,0,1,2.664,363.481,30.964,30.964,0,0,1,0,351V29.9A28.333,28.333,0,0,1,9.837,8.462,33.224,33.224,0,0,1,20.292,2.239,35.7,35.7,0,0,1,32.8,0H353.2a31.144,31.144,0,0,1,22.36,8.866,28.149,28.149,0,0,1,6.159,9.336A30.539,30.539,0,0,1,383.9,29.9V351a34.236,34.236,0,0,1-2.338,12.439,33.711,33.711,0,0,1-6.463,10.5A29.483,29.483,0,0,1,353.1,383.9ZM20.175,18A2.261,2.261,0,0,0,18,20.175V362.629A3.336,3.336,0,0,0,21.371,366H363.825A2.325,2.325,0,0,0,366,363.825V20.175A2.323,2.323,0,0,0,363.825,18Z" fill="#fff"/>
  </g>
</svg>
