<svg xmlns="http://www.w3.org/2000/svg" width="471.9" height="384" viewBox="0 0 471.9 384">
  <g id="social-twitter-outline" transform="translate(-0.1 0)">
    <path id="Shape" d="M148.2,384a272.9,272.9,0,0,1-78.563-11.475A269.855,269.855,0,0,1,0,340.2a197.307,197.307,0,0,0,23.1,1.4,192.909,192.909,0,0,0,120.3-41.5,96.949,96.949,0,0,1-90.5-67.3,91.526,91.526,0,0,0,18.2,1.8,97.327,97.327,0,0,0,25.5-3.4,96.786,96.786,0,0,1-77.7-95V135a94.7,94.7,0,0,0,43.8,12.1,97.061,97.061,0,0,1-30-129.4A275.333,275.333,0,0,0,232.4,119a95.089,95.089,0,0,1-2.5-22.1,96.531,96.531,0,0,1,16.522-54.171A97.059,97.059,0,0,1,289,7.617a96.718,96.718,0,0,1,76.8.645A97.31,97.31,0,0,1,397.4,30.7,192.1,192.1,0,0,0,458.9,7.2a95.68,95.68,0,0,1-16.5,30.775A97.513,97.513,0,0,1,416.3,60.8a196.211,196.211,0,0,0,55.6-15.3,196.23,196.23,0,0,1-21.975,27.274A201.6,201.6,0,0,1,423.6,95.7c.2,4.084.3,8.29.3,12.5a268.225,268.225,0,0,1-4.537,48.63,288.426,288.426,0,0,1-13.481,48.507,291.433,291.433,0,0,1-22.228,46.423,281.389,281.389,0,0,1-30.778,42.379,267.217,267.217,0,0,1-39.131,36.374,259,259,0,0,1-47.287,28.409C230.545,375.562,190.758,384,148.2,384ZM38.2,159.8a80.613,80.613,0,0,0,61.3,55.8l61.7,10.9-60.7,20.2A111.452,111.452,0,0,1,79,250.4a81.159,81.159,0,0,0,64.3,33.9l44.9.8-35.3,27.7a208.946,208.946,0,0,1-89.2,40.9,257.249,257.249,0,0,0,84.5,14.2c40.272,0,77.786-7.94,111.5-23.6a244.533,244.533,0,0,0,81.1-60.8,268.977,268.977,0,0,0,50-83.8c11.122-29.756,17-61.4,17-91.5,0-4.049-.1-8.019-.3-11.8l-.4-8.6,7-5.1c2.992-2.095,8-5.6,10.8-7.9l-.481.067A93.134,93.134,0,0,1,411.6,75.885,51.19,51.19,0,0,1,406,75.6c-8.013-.89-20.97-4.959-21.1-5,.011-.012.116-.111.3-.284,4.037-3.787,13.823-12.948,17.5-16.215,5.364-4.756,10.018-9.424,11-10.8-4.086,1.114-8.437,2.128-13.3,3.1l-8.7,1.7-6.1-6.5a80.876,80.876,0,0,0-137.8,73.6l4.8,20.7-21.2-1.1a288.414,288.414,0,0,1-118.6-31.9A287.621,287.621,0,0,1,72.925,78.15,294.771,294.771,0,0,1,37.7,47.4a86.505,86.505,0,0,0-2.2,19,81.071,81.071,0,0,0,36,67.4c.334.23,33.5,23.046,46.4,29.2-7.374.461-16.216.694-26.281.694-15.731,0-29.383-.588-29.519-.594a123.588,123.588,0,0,1-23.9-3.3Z" transform="translate(0.1)" fill="#fff"/>
  </g>
</svg>
