<svg xmlns="http://www.w3.org/2000/svg" width="384" height="383.955" viewBox="0 0 384 383.955">
  <g id="thumbsup" transform="translate(0 -0.045)">
    <path id="Shape" d="M112,383.955H0v-240H112.1v16c18.652-.746,32.178-5.322,40.2-13.6,23.433-24.072,39.8-68.771,39.8-108.7,0-3.814-.064-7.322-.12-10.417-.221-12.152-.354-19.487,3.62-23.382A13.679,13.679,0,0,1,205.622,0a28.485,28.485,0,0,1,12.132,3.178,53.105,53.105,0,0,1,12.465,8.685A64.2,64.2,0,0,1,240.98,24.781,57.061,57.061,0,0,1,248,40.655a129.549,129.549,0,0,1,4.08,36.336c-.246,11.429-1.661,22.09-3.031,32.4-.86,6.473-1.672,12.588-2.15,18.563H349.5a34.489,34.489,0,0,1,27.776,54.95,34.691,34.691,0,0,1-7.534,7.478,34.316,34.316,0,0,1-9.541,4.872,32.279,32.279,0,0,1,17.9,28.6,31.77,31.77,0,0,1-5.737,18.275,32.091,32.091,0,0,1-6.455,6.841,31.742,31.742,0,0,1-8.208,4.684,31.961,31.961,0,0,1-13.7,48.9,32.493,32.493,0,0,1,3.75,8.126,31.739,31.739,0,0,1,1.35,9.175,28.719,28.719,0,0,1-2.052,11.4,21.757,21.757,0,0,1-6.336,8.358c-5.343,4.431-13.551,7.774-26.613,10.838a334.357,334.357,0,0,1-40,6.208c-17.852,1.823-37.07,2.787-55.577,2.787-10.423,0-20.76-.3-30.724-.895-9.324-.563-20.306-1.848-30.927-3.09-14.88-1.741-30.265-3.541-42.235-3.541-.905,0-1.793.01-2.639.031v32Zm-64-64.3a16,16,0,1,0,16,16A16.018,16.018,0,0,0,48,319.655Z" transform="translate(0 0.045)" fill="#fff"/>
  </g>
</svg>
